<svg width="120" height="120" fill="none" xmlns="http://www.w3.org/2000/svg"><path fill-rule="evenodd" clip-rule="evenodd" d="M60 117c31.4802 0 57-25.5198 57-57S91.4802 3 60 3 3 28.5198 3 60s25.5198 57 57 57zm0 3c33.1371 0 60-26.8629 60-60 0-33.1371-26.8629-60-60-60C26.8629 0 0 26.8629 0 60c0 33.1371 26.8629 60 60 60zm-4.9497-59.293L36.6655 42.3223l5.6569-5.6569 18.3847 18.3848 17.6777-17.6776 5.6568 5.6568L66.364 60.707l16.9706 16.9706-5.6569 5.6569-16.9706-16.9706-17.6777 17.6777-5.6568-5.6568L55.0503 60.707z" fill="#FD0707"/></svg>