<svg width="126" height="24" fill="none" xmlns="http://www.w3.org/2000/svg"><path d="M3.05196 23.7139l1.74929-5.0025H12.245l1.74 5.0025h3.052L10.1794 4.81169H6.8576L0 23.7139h3.05196zm2.58672-7.4021l2.81003-8.0667h.14888l2.81001 8.0667H5.63868zM19.5656 23.7139h2.7821v-8.6574c0-1.8551 1.4422-3.1934 3.4148-3.1934.5769 0 1.2282.1015 1.4516.1661V9.38957c-.2792-.03692-.8282-.06461-1.1817-.06461-1.6749 0-3.1078.94144-3.6289 2.46434h-.1489V9.53724h-2.689V23.7139zM35.1301 24c4.0289 0 6.6622-2.9258 6.6622-7.3098 0-4.4118-2.6333-7.33755-6.6622-7.33755-4.029 0-6.6622 2.92575-6.6622 7.33755 0 4.384 2.6332 7.3098 6.6622 7.3098zm.0093-2.3166c-2.6333 0-3.8615-2.2797-3.8615-5.0025 0-2.7135 1.2282-5.0209 3.8615-5.0209 2.6146 0 3.8428 2.3074 3.8428 5.0209 0 2.7228-1.2282 5.0025-3.8428 5.0025zM53.9513 17.8346c.0093 2.409-1.7959 3.5534-3.3591 3.5534-1.7213 0-2.9123-1.2367-2.9123-3.1657V9.53724h-2.7822v9.01726c0 3.5165 1.9447 5.344 4.6896 5.344 2.1494 0 3.6103-1.126 4.2709-2.6397h.1489v2.4551h2.7356V9.53724h-2.7914v8.29736zM63.263 15.2965c0-2.2612 1.3957-3.5534 3.3311-3.5534 1.8888 0 3.0333 1.2275 3.0333 3.2857v8.6851h2.7822v-9.0173c0-3.5073-1.9447-5.34395-4.8664-5.34395-2.1494 0-3.5544.98755-4.2151 2.49195h-.1768V9.53724h-2.6704V23.7139h2.7821v-8.4174zM81.491 23.9908c2.6053 0 3.6288-1.5783 4.1313-2.4828h.2326v2.2059h2.717V4.81169h-2.7821v7.02371h-.1675c-.5025-.8768-1.4515-2.48275-4.1127-2.48275-3.4521 0-5.9923 2.70425-5.9923 7.30055 0 4.5872 2.503 7.3376 5.9737 7.3376zm.6141-2.3536c-2.4844 0-3.7777-2.1689-3.7777-5.0116 0-2.8151 1.2654-4.9286 3.7777-4.9286 2.4285 0 3.7312 1.9659 3.7312 4.9286 0 2.9811-1.3306 5.0116-3.7312 5.0116zM92.2059.762979h1.9974V6.38687h.7692V.762979H96.97V.0861429h-4.7641V.762979zM98.7898 3.54416c0-.82451.5304-1.29214 1.2532-1.29214.688 0 1.104.43071 1.104 1.18139v2.95346h.732V3.38418c0-1.21523-.651-1.78438-1.625-1.78438-.7508 0-1.1789.31072-1.4022.79989h-.062V.0861429h-.732V6.38687h.732V3.54416zM105.216 6.48532c.967 0 1.674-.47994 1.898-1.19369l-.707-.1969c-.187.49225-.618.73837-1.191.73837-.86 0-1.452-.5507-1.486-1.56288h3.458v-.30765c0-1.75978-1.054-2.36277-2.047-2.36277-1.29 0-2.146 1.0091-2.146 2.46122 0 1.45212.843 2.4243 2.221 2.4243zm-1.486-2.84271c.049-.73529.574-1.39059 1.411-1.39059.794 0 1.303.59069 1.303 1.39059h-2.714zM115.026.0861429V4.19639c0 .92295-.639 1.58748-1.7 1.58748s-1.7-.66453-1.7-1.58748V.0861429h-.769V4.25792c0 1.29214.974 2.23971 2.469 2.23971 1.495 0 2.469-.94757 2.469-2.23971V.0861429h-.769zM117.467 6.4361c.307 0 .558-.2492.558-.55378 0-.30457-.251-.55377-.558-.55377-.307 0-.559.2492-.559.55377 0 .30458.252.55378.559.55378zM122.912 1.66133h.744C123.622.710678 122.738 0 121.51 0c-1.216 0-2.171.701449-2.171 1.75977 0 .84913.62 1.35368 1.612 1.63672l.782.22151c.67.18459 1.265.41841 1.265 1.04602 0 .68914-.67 1.14447-1.55 1.14447-.757 0-1.427-.33227-1.489-1.04602h-.794c.074 1.03371.918 1.73516 2.283 1.73516 1.464 0 2.295-.7999 2.295-1.82131 0-1.18138-1.129-1.56287-1.787-1.73516l-.645-.17228c-.471-.12306-1.228-.36919-1.228-1.04602 0-.603.558-1.046024 1.402-1.046024.769 0 1.352.363034 1.427.984494zM125.442 6.4361c.307 0 .558-.2492.558-.55378 0-.30457-.251-.55377-.558-.55377-.307 0-.559.2492-.559.55377 0 .30458.252.55378.559.55378z" fill="#fff"/></svg>